# xmcd CD database file
#
# Track frame offsets:
#	150
#	11810
#	25635
#	35537
#	48920
#	61005
#	73102
#	86145
#	99617
#	115647
#
# Disc length: 1771 seconds
#
# Revision: 13
# Processed by: cddbd v1.5.2PL0 Copyright (c) Steve Scherf et al.
# Submitted via: CDex 1.92
#
DISCID=7906e90a
DTITLE=Ray Charles - Ray Charles and Friends
DYEAR=1998
DGENRE=Country
TTITLE0=Two Old Cats Like Us
TTITLE1=This Old Heart (Is Gonna Rise Again)
TTITLE2=We Didn't See A Thing
TTITLE3=Who Cares
TTITLE4=Rock And Roll Shoes
TTITLE5=Friendship
TTITLE6=It Ain't Gonna Worry My Mind
TTITLE7=Little Hotel Room
TTITLE8=Crazy Old Soldier
TTITLE9=Seven Spanish Angels
EXTD=YEAR: 1998
EXTT0=
EXTT1=
EXTT2=
EXTT3=
EXTT4=
EXTT5=
EXTT6=
EXTT7=
EXTT8=
EXTT9=
PLAYORDER=
